<svg width="77" height="42" viewBox="0 0 77 42" fill="none" xmlns="http://www.w3.org/2000/svg">
<path d="M14.7422 15.1545C16.2728 15.1812 17.8034 15.2101 19.3363 15.2368C19.8568 15.2457 20.3663 15.3125 20.8624 15.4704C20.9848 15.5083 21.1094 15.5483 21.225 15.6017C21.6055 15.7819 21.8257 16.0622 21.8368 16.5049C21.8613 17.5194 21.908 18.5339 21.9325 19.5483C21.9637 20.8409 21.9192 22.1312 21.819 23.4194C21.6967 24.9856 21.4319 26.5295 21.0293 28.049C20.4976 30.0557 19.7389 31.9734 18.7222 33.7843C17.7767 35.4684 16.611 36.9812 15.1427 38.2538C14.4574 38.8478 13.7745 39.4351 13.0047 39.9179C11.7811 40.6832 10.4441 41.1459 9.02469 41.3528C8.24158 41.4663 7.44736 41.5108 6.65536 41.5619C6.17927 41.5931 5.94122 41.3973 5.80107 40.9435C5.60752 40.3139 5.9212 39.4351 6.50185 39.0347C6.68206 38.9101 6.89118 38.8278 7.08918 38.7321C7.66983 38.454 8.26383 38.1982 8.83336 37.8956C9.47408 37.5552 10.0236 37.0903 10.5019 36.543C10.5887 36.4451 10.6954 36.3405 10.6465 36.2048C10.582 36.0291 10.4085 36.0647 10.2639 36.0647C10.0236 36.0647 9.78331 36.0691 9.54527 36.0758C8.72212 36.0958 7.93457 35.9356 7.16482 35.6464C6.06581 35.2326 5.08248 34.623 4.157 33.9089C3.60082 33.4795 3.08246 33.0079 2.59747 32.5007C1.81214 31.6797 1.1959 30.7454 0.713135 29.7175C0.323809 28.8877 0.116909 28.0112 0.0635154 27.1013C0.019021 26.3471 -0.0187988 25.5885 0.0101226 24.8343C0.0724147 23.2681 0.564078 21.8309 1.42504 20.5228C2.80215 18.436 4.63531 16.8742 6.92678 15.8753C8.01911 15.3992 9.16484 15.1479 10.3684 15.1634C11.8256 15.1812 13.2828 15.1679 14.7422 15.1679C14.7422 15.1634 14.7422 15.159 14.7422 15.1545ZM13.2027 20.6563C12.4285 20.6563 11.6543 20.6518 10.8801 20.6563C10.6599 20.6563 10.4374 20.6741 10.2194 20.7074C8.8823 20.9121 7.74325 21.5217 6.76882 22.4449C6.22376 22.9611 5.83889 23.584 5.61419 24.3026C5.38504 25.0323 5.29606 25.7798 5.37392 26.5406C5.48738 27.6574 5.85891 28.6652 6.7132 29.4328C7.89453 30.4962 9.26051 31.0991 10.8868 31.0234C11.7767 30.9812 12.5842 30.732 13.3251 30.2359C14.0481 29.7509 14.5843 29.1057 15.0025 28.3582C15.4741 27.5173 15.8012 26.6185 16.0348 25.6841C16.195 25.039 16.3262 24.3871 16.3373 23.7219C16.3507 22.9121 16.344 22.1001 16.3373 21.2881C16.3329 20.7252 16.2661 20.6607 15.6922 20.6563C14.8623 20.6518 14.0325 20.6563 13.2027 20.6563Z" fill="#626CC6"/>
<path d="M11.0715 0.435787C14.3863 0.377944 17.423 3.12769 17.3897 6.76734C17.3585 10.229 14.5576 13.0121 11.0804 12.9943C7.56085 12.9788 4.78663 10.1667 4.79997 6.62051C4.81332 3.27008 7.5831 0.384618 11.0715 0.435787Z" fill="#475569"/>
<path d="M29.098 30.5V12.0845H41.0752V14.881H32.434V19.8805H40.4548V22.677H32.434V27.7035H41.1472V30.5H29.098ZM54.4867 17.147C54.4028 16.3617 54.0491 15.7502 53.4256 15.3126C52.8082 14.875 52.0049 14.6562 51.0158 14.6562C50.3204 14.6562 49.724 14.7611 49.2264 14.9709C48.7289 15.1808 48.3482 15.4655 48.0844 15.8252C47.8207 16.1849 47.6858 16.5955 47.6798 17.0571C47.6798 17.4407 47.7667 17.7734 47.9406 18.0552C48.1204 18.3369 48.3632 18.5767 48.6689 18.7745C48.9746 18.9664 49.3133 19.1282 49.685 19.2601C50.0567 19.392 50.4313 19.5029 50.809 19.5928L52.5354 20.0244C53.2308 20.1863 53.8992 20.4051 54.5406 20.6808C55.1881 20.9566 55.7665 21.3043 56.2761 21.7239C56.7916 22.1435 57.1992 22.65 57.499 23.2435C57.7987 23.837 57.9486 24.5324 57.9486 25.3296C57.9486 26.4087 57.6728 27.3588 57.1213 28.1801C56.5698 28.9954 55.7725 29.6338 54.7295 30.0954C53.6924 30.551 52.4365 30.7787 50.9618 30.7787C49.5291 30.7787 48.2853 30.5569 47.2302 30.1133C46.1811 29.6697 45.3599 29.0223 44.7664 28.1711C44.1789 27.3199 43.8612 26.2828 43.8133 25.0599H47.0953C47.1433 25.7013 47.3411 26.2348 47.6888 26.6604C48.0365 27.0861 48.4891 27.4038 49.0466 27.6136C49.6101 27.8234 50.2395 27.9283 50.9349 27.9283C51.6602 27.9283 52.2957 27.8204 52.8412 27.6046C53.3927 27.3828 53.8243 27.0771 54.136 26.6874C54.4477 26.2918 54.6066 25.8302 54.6126 25.3027C54.6066 24.8231 54.4657 24.4275 54.1899 24.1157C53.9142 23.798 53.5275 23.5343 53.03 23.3244C52.5384 23.1086 51.963 22.9168 51.3035 22.749L49.2084 22.2094C47.6918 21.8198 46.4929 21.2293 45.6117 20.438C44.7364 19.6408 44.2988 18.5827 44.2988 17.2639C44.2988 16.1789 44.5926 15.2287 45.18 14.4134C45.7735 13.5982 46.5798 12.9657 47.5989 12.5162C48.618 12.0606 49.7719 11.8328 51.0608 11.8328C52.3676 11.8328 53.5126 12.0606 54.4957 12.5162C55.4848 12.9657 56.2611 13.5922 56.8246 14.3955C57.3881 15.1927 57.6788 16.1099 57.6968 17.147H54.4867ZM70.9307 17.147C70.8467 16.3617 70.4931 15.7502 69.8696 15.3126C69.2522 14.875 68.4489 14.6562 67.4598 14.6562C66.7644 14.6562 66.1679 14.7611 65.6704 14.9709C65.1728 15.1808 64.7922 15.4655 64.5284 15.8252C64.2647 16.1849 64.1298 16.5955 64.1238 17.0571C64.1238 17.4407 64.2107 17.7734 64.3845 18.0552C64.5644 18.3369 64.8072 18.5767 65.1129 18.7745C65.4186 18.9664 65.7573 19.1282 66.129 19.2601C66.5006 19.392 66.8753 19.5029 67.253 19.5928L68.9794 20.0244C69.6748 20.1863 70.3432 20.4051 70.9846 20.6808C71.632 20.9566 72.2105 21.3043 72.7201 21.7239C73.2356 22.1435 73.6432 22.65 73.943 23.2435C74.2427 23.837 74.3926 24.5324 74.3926 25.3296C74.3926 26.4087 74.1168 27.3588 73.5653 28.1801C73.0138 28.9954 72.2165 29.6338 71.1734 30.0954C70.1364 30.551 68.8805 30.7787 67.4058 30.7787C65.9731 30.7787 64.7292 30.5569 63.6742 30.1133C62.6251 29.6697 61.8039 29.0223 61.2104 28.1711C60.6229 27.3199 60.3052 26.2828 60.2573 25.0599H63.5393C63.5873 25.7013 63.7851 26.2348 64.1328 26.6604C64.4805 27.0861 64.9331 27.4038 65.4906 27.6136C66.054 27.8234 66.6835 27.9283 67.3789 27.9283C68.1042 27.9283 68.7396 27.8204 69.2851 27.6046C69.8366 27.3828 70.2683 27.0771 70.58 26.6874C70.8917 26.2918 71.0506 25.8302 71.0566 25.3027C71.0506 24.8231 70.9097 24.4275 70.6339 24.1157C70.3582 23.798 69.9715 23.5343 69.474 23.3244C68.9824 23.1086 68.4069 22.9168 67.7475 22.749L65.6524 22.2094C64.1358 21.8198 62.9368 21.2293 62.0556 20.438C61.1804 19.6408 60.7428 18.5827 60.7428 17.2639C60.7428 16.1789 61.0366 15.2287 61.624 14.4134C62.2175 13.5982 63.0238 12.9657 64.0429 12.5162C65.0619 12.0606 66.2159 11.8328 67.5047 11.8328C68.8116 11.8328 69.9565 12.0606 70.9397 12.5162C71.9288 12.9657 72.7051 13.5922 73.2686 14.3955C73.8321 15.1927 74.1228 16.1099 74.1408 17.147H70.9307Z" fill="#475569"/>
</svg>
