<svg width="13" height="13" viewBox="0 0 13 13" fill="none" xmlns="http://www.w3.org/2000/svg">
<g clip-path="url(#clip0_1399_11421)">
<path d="M1.89599 8.671C1.96951 8.85646 1.98588 9.05967 1.94299 9.2545L1.41049 10.8995C1.39333 10.9829 1.39777 11.0693 1.42338 11.1506C1.44899 11.2318 1.49492 11.3051 1.55683 11.3636C1.61873 11.4221 1.69455 11.4638 1.77709 11.4848C1.85964 11.5058 1.94617 11.5053 2.02849 11.4835L3.73499 10.9845C3.91885 10.948 4.10926 10.964 4.28449 11.0305C5.35219 11.5291 6.56168 11.6346 7.69957 11.3284C8.83746 11.0221 9.83063 10.3238 10.5038 9.35668C11.1771 8.38954 11.4871 7.2157 11.3791 6.04227C11.2712 4.86884 10.7523 3.77123 9.91403 2.9431C9.07571 2.11496 7.97184 1.60952 6.79718 1.51595C5.62252 1.42238 4.45256 1.74669 3.49371 2.43167C2.53487 3.11665 1.84876 4.11827 1.55644 5.25982C1.26412 6.40137 1.38438 7.60948 1.89599 8.671Z" stroke="#475569" stroke-linecap="round" stroke-linejoin="round"/>
</g>
<defs>
<clipPath id="clip0_1399_11421">
<rect width="12" height="12" fill="white" transform="translate(0.400024 0.5)"/>
</clipPath>
</defs>
</svg>
