<svg width="12" height="13" viewBox="0 0 12 13" fill="none" xmlns="http://www.w3.org/2000/svg">
<path d="M10.7099 5.961C10.7994 5.92152 10.8754 5.85664 10.9284 5.77441C10.9814 5.69217 11.0091 5.5962 11.0081 5.49837C11.0071 5.40055 10.9774 5.30516 10.9227 5.22405C10.868 5.14293 10.7907 5.07963 10.7004 5.042L6.4149 3.09C6.28462 3.03058 6.14309 2.99982 5.9999 2.99982C5.8567 2.99982 5.71518 3.03058 5.5849 3.09L1.2999 5.04C1.21088 5.07899 1.13516 5.14307 1.08198 5.22441C1.02881 5.30575 1.00049 5.40082 1.00049 5.498C1.00049 5.59518 1.02881 5.69026 1.08198 5.7716C1.13516 5.85294 1.21088 5.91702 1.2999 5.956L5.5849 7.91C5.71518 7.96943 5.8567 8.00018 5.9999 8.00018C6.14309 8.00018 6.28462 7.96943 6.4149 7.91L10.7099 5.961Z" stroke="#37474F" stroke-linecap="round" stroke-linejoin="round"/>
<path d="M11 5.5V8.5" stroke="#37474F" stroke-linecap="round" stroke-linejoin="round"/>
<path d="M3 6.75V8.5C3 8.89782 3.31607 9.27936 3.87868 9.56066C4.44129 9.84196 5.20435 10 6 10C6.79565 10 7.55871 9.84196 8.12132 9.56066C8.68393 9.27936 9 8.89782 9 8.5V6.75" stroke="#37474F" stroke-linecap="round" stroke-linejoin="round"/>
</svg>
