<svg width="13" height="12" viewBox="0 0 13 12" fill="none" xmlns="http://www.w3.org/2000/svg">
<g clip-path="url(#clip0_1399_13910)">
<path d="M10.987 3.40601C11.2513 3.14172 11.3999 2.78324 11.3999 2.40943C11.4 2.03563 11.2515 1.67711 10.9872 1.41276C10.723 1.1484 10.3645 0.999864 9.99067 0.999817C9.61686 0.99977 9.25835 1.14822 8.99399 1.41251L2.32099 8.08701C2.2049 8.20276 2.11905 8.34527 2.07099 8.50201L1.41049 10.678C1.39757 10.7212 1.39659 10.7672 1.40767 10.8109C1.41874 10.8547 1.44145 10.8946 1.47339 10.9265C1.50533 10.9584 1.5453 10.981 1.58907 10.992C1.63284 11.003 1.67877 11.002 1.72199 10.989L3.89849 10.329C4.05508 10.2814 4.19758 10.1961 4.31349 10.0805L10.987 3.40601Z" stroke="#626CC6" stroke-width="1.2" stroke-linecap="round" stroke-linejoin="round"/>
<path d="M7.90002 2.5L9.90002 4.5" stroke="#626CC6" stroke-linecap="round" stroke-linejoin="round"/>
</g>
<defs>
<clipPath id="clip0_1399_13910">
<rect width="12" height="12" fill="white" transform="translate(0.400024)"/>
</clipPath>
</defs>
</svg>
