<svg width="12" height="13" viewBox="0 0 12 13" fill="none" xmlns="http://www.w3.org/2000/svg">
<path d="M8 11V10C8 9.46957 7.78929 8.96086 7.41421 8.58579C7.03914 8.21071 6.53043 8 6 8H3C2.46957 8 1.96086 8.21071 1.58579 8.58579C1.21071 8.96086 1 9.46957 1 10V11" stroke="#37474F" stroke-linecap="round" stroke-linejoin="round"/>
<path d="M8 2.06396C8.42888 2.17515 8.8087 2.4256 9.07984 2.776C9.35098 3.1264 9.4981 3.55691 9.4981 3.99996C9.4981 4.44302 9.35098 4.87353 9.07984 5.22393C8.8087 5.57433 8.42888 5.82478 8 5.93596" stroke="#37474F" stroke-linecap="round" stroke-linejoin="round"/>
<path d="M11 10.9999V9.99994C10.9997 9.55681 10.8522 9.12633 10.5807 8.7761C10.3092 8.42587 9.92906 8.17573 9.5 8.06494" stroke="#37474F" stroke-linecap="round" stroke-linejoin="round"/>
<path d="M4.5 6C5.60457 6 6.5 5.10457 6.5 4C6.5 2.89543 5.60457 2 4.5 2C3.39543 2 2.5 2.89543 2.5 4C2.5 5.10457 3.39543 6 4.5 6Z" stroke="#37474F" stroke-linecap="round" stroke-linejoin="round"/>
</svg>
