<svg width="17" height="17" viewBox="0 0 17 17" fill="none" xmlns="http://www.w3.org/2000/svg">
<g clip-path="url(#clip0_1098_123840)">
<path d="M1.53328 14.5C1.53322 13.4736 1.82937 12.4689 2.38618 11.6066C2.94298 10.7443 3.7368 10.061 4.67235 9.63868C5.6079 9.21637 6.64544 9.07301 7.66045 9.22579C8.67547 9.37857 9.62483 9.82101 10.3946 10.5" stroke="#10B981" stroke-width="1.33333" stroke-linecap="round" stroke-linejoin="round"/>
<path d="M6.86661 9.16667C8.70756 9.16667 10.1999 7.67428 10.1999 5.83333C10.1999 3.99238 8.70756 2.5 6.86661 2.5C5.02566 2.5 3.53328 3.99238 3.53328 5.83333C3.53328 7.67428 5.02566 9.16667 6.86661 9.16667Z" stroke="#10B981" stroke-width="1.33333" stroke-linecap="round" stroke-linejoin="round"/>
<path d="M10.8666 13.1667L12.2 14.5L14.8666 11.8333" stroke="#10B981" stroke-width="1.33333" stroke-linecap="round" stroke-linejoin="round"/>
</g>
<defs>
<clipPath id="clip0_1098_123840">
<rect width="16" height="16" fill="white" transform="translate(0.199951 0.5)"/>
</clipPath>
</defs>
</svg>
