<svg width="17" height="16" viewBox="0 0 17 16" fill="none" xmlns="http://www.w3.org/2000/svg">
<g clip-path="url(#clip0_1341_11898)">
<path d="M15.3527 0H2.24738C1.44805 0 0.800049 0.648 0.800049 1.44733V14.5526C0.800049 15.352 1.44805 16 2.24738 16H15.3527C16.152 16 16.8 15.352 16.8 14.5526V1.44733C16.8 0.648 16.152 0 15.3527 0ZM5.75113 13.8155C5.75113 14.0481 5.56256 14.2366 5.32993 14.2366H3.53701C3.30438 14.2366 3.11582 14.0481 3.11582 13.8155V6.2996C3.11582 6.06697 3.30438 5.87841 3.53701 5.87841H5.32993C5.56256 5.87841 5.75113 6.06697 5.75113 6.2996V13.8155ZM4.43347 5.16993C3.49278 5.16993 2.73019 4.40733 2.73019 3.46664C2.73019 2.52595 3.49278 1.76335 4.43347 1.76335C5.37416 1.76335 6.13676 2.52595 6.13676 3.46664C6.13676 4.40733 5.37421 5.16993 4.43347 5.16993ZM15.1209 13.8494C15.1209 14.0632 14.9475 14.2366 14.7336 14.2366H12.8097C12.5958 14.2366 12.4224 14.0632 12.4224 13.8494V10.324C12.4224 9.79811 12.5767 8.01948 11.048 8.01948C9.86233 8.01948 9.62183 9.2369 9.57354 9.78325V13.8494C9.57354 14.0632 9.40017 14.2366 9.18627 14.2366H7.32549C7.11163 14.2366 6.93823 14.0632 6.93823 13.8494V6.26568C6.93823 6.05181 7.11163 5.87841 7.32549 5.87841H9.18627C9.40013 5.87841 9.57354 6.05181 9.57354 6.26568V6.92138C10.0132 6.26157 10.6666 5.75229 12.0578 5.75229C15.1385 5.75229 15.1209 8.63045 15.1209 10.2119V13.8494Z" fill="#0077B7"/>
</g>
<defs>
<clipPath id="clip0_1341_11898">
<rect width="16" height="16" fill="white" transform="translate(0.800049)"/>
</clipPath>
</defs>
</svg>
