<svg width="21" height="20" viewBox="0 0 21 20" fill="none" xmlns="http://www.w3.org/2000/svg">
<path d="M17.3333 8.33333C17.3333 12.4942 12.7175 16.8275 11.1675 18.1658C11.0231 18.2744 10.8473 18.3331 10.6667 18.3331C10.486 18.3331 10.3102 18.2744 10.1658 18.1658C8.61583 16.8275 4 12.4942 4 8.33333C4 6.56522 4.70238 4.86953 5.95262 3.61929C7.20286 2.36905 8.89856 1.66667 10.6667 1.66667C12.4348 1.66667 14.1305 2.36905 15.3807 3.61929C16.631 4.86953 17.3333 6.56522 17.3333 8.33333Z" stroke="#475569" stroke-width="1.66667" stroke-linecap="round" stroke-linejoin="round"/>
<path d="M10.6667 10.8333C12.0475 10.8333 13.1667 9.71404 13.1667 8.33333C13.1667 6.95262 12.0475 5.83333 10.6667 5.83333C9.28604 5.83333 8.16675 6.95262 8.16675 8.33333C8.16675 9.71404 9.28604 10.8333 10.6667 10.8333Z" stroke="#475569" stroke-width="1.66667" stroke-linecap="round" stroke-linejoin="round"/>
</svg>
