<svg width="94" height="48" viewBox="0 0 94 48" fill="none" xmlns="http://www.w3.org/2000/svg">
<path d="M39.6797 3.9007C39.9921 4.30772 40.0137 4.62599 39.9499 5.12733C39.7941 5.82172 39.4929 6.47839 39.2222 7.13455C39.1571 7.29445 39.0919 7.45435 39.0269 7.61435C38.8401 8.07158 38.6507 8.5277 38.4599 8.9833C38.4114 9.09908 38.3629 9.21486 38.313 9.3342C38.1944 9.61415 38.0739 9.89308 37.9516 10.1714C37.9187 10.2476 37.8857 10.324 37.8518 10.4026C37.5478 11.0747 37.1586 11.7264 36.5285 12.1345C36.2172 12.179 36.2172 12.179 35.9186 12.1345C35.6431 11.8466 35.5698 11.6397 35.5691 11.2451C35.5913 10.3748 35.8592 9.5311 36.1032 8.70101C36.2054 8.3249 36.2487 8.03611 36.1219 7.66823C35.8644 7.27382 35.765 7.25735 35.3086 7.15356C34.8933 7.12185 34.4799 7.11971 34.0634 7.12185C33.8865 7.12256 33.8865 7.12256 33.7061 7.12327C32.7233 7.13659 31.7914 7.2299 30.836 7.45852C30.7649 7.47539 30.694 7.49237 30.6208 7.50975C28.2119 8.10635 26.077 9.25471 24.3302 11.0163C24.2605 11.0826 24.1908 11.149 24.119 11.2173C23.2268 12.1295 22.6842 13.468 22.5703 14.7203C22.625 15.3433 22.7143 15.9013 23.1612 16.3595C24.1843 16.7796 25.1518 16.5915 26.1485 16.1816C27.8717 15.3355 29.1127 13.1927 29.7178 11.4229C29.851 10.9878 29.9804 10.5516 30.0974 10.1118C30.2555 9.54157 30.4677 9.04551 30.836 8.57669C31.1311 8.42919 31.3211 8.43722 31.6492 8.47504C32.2139 8.8477 32.545 9.29252 32.7419 9.94899C32.7503 10.0329 32.7587 10.1167 32.7674 10.2031C32.7778 10.3038 32.7883 10.4044 32.7991 10.5081C32.7415 12.7365 30.9081 14.4495 29.4184 15.8754C29.1047 16.172 28.7866 16.4634 28.467 16.7536C28.3084 16.8994 28.1535 17.0482 27.9997 17.1988C27.2442 17.9256 26.4181 18.5064 25.5557 19.0985C22.9323 20.763 22.9323 20.763 21.4082 23.3059C21.3996 23.4099 21.3911 23.514 21.3823 23.6212C22.0569 24.0597 22.7568 24.4301 23.4725 24.7966C23.7201 24.9237 23.9676 25.0511 24.2151 25.1785C24.3079 25.2263 24.3079 25.2263 24.4026 25.2749C24.7783 25.4683 25.1525 25.6644 25.5255 25.8631C26.5774 26.4224 27.6399 26.9446 28.722 27.4425C31.7331 28.829 35.1247 30.6817 36.3649 33.9563C36.9039 35.7554 36.6886 37.4892 35.8113 39.1445C34.8818 40.7162 33.5068 41.6478 31.9541 42.5284C31.8686 42.577 31.7833 42.6256 31.6952 42.6756C29.2169 44.0679 26.462 44.9478 23.6187 45.1714C23.5166 45.18 23.4145 45.1886 23.3092 45.1975C22.4311 45.2668 21.558 45.2928 20.6771 45.2922C20.6093 45.292 20.5414 45.292 20.4714 45.292C16.7945 45.2852 12.7885 44.8671 9.97825 42.2616C8.82238 41.0598 8.19766 39.5037 8.22135 37.8352C8.29105 36.3138 9.12637 34.93 10.2006 33.888C12.4907 31.8081 15.3212 30.5984 18.2168 29.6201C18.354 29.5738 18.491 29.5274 18.6282 29.4808C18.9607 29.368 19.2934 29.2563 19.6271 29.1471C19.747 29.1069 19.8667 29.0668 19.9902 29.0254C20.097 28.9902 20.204 28.9551 20.3142 28.9189C20.5991 28.8194 20.5991 28.8194 20.7724 28.5005C20.0262 28.1474 19.258 27.8755 18.4788 27.6047C16.8252 27.0201 16.8252 27.0201 16.052 26.6898C15.9326 26.6388 15.8132 26.5879 15.6902 26.5353C15.2779 26.3064 14.9684 26.0411 14.7559 25.6161C14.7879 25.1685 15.0645 24.9212 15.3849 24.6377C15.6687 24.4377 15.9594 24.2512 16.2517 24.064C17.3243 23.3562 18.29 22.4614 19.2612 21.6227C19.5526 21.3848 19.5526 21.3848 19.8886 21.1755C20.1753 21.0068 20.1753 21.0068 20.2515 20.7495C20.2556 20.6909 20.2598 20.6321 20.2642 20.5716C20.2114 20.5262 20.1585 20.4806 20.1042 20.4339C18.5148 19.056 18.5148 19.056 18.4003 17.8842C18.3643 14.5992 20.4366 11.9529 22.6022 9.69486C22.7388 9.55021 22.7388 9.55021 22.8781 9.40261C23.5794 8.67763 24.3358 8.05857 25.1435 7.45852C25.2479 7.38004 25.3524 7.30157 25.4599 7.22065C27.105 6.03123 28.9234 5.26467 30.836 4.61227C30.9814 4.56256 30.9814 4.56256 31.1299 4.51173C37.5476 2.35518 37.5476 2.35519 39.6797 3.9007ZM16.3506 32.5793C16.2578 32.6266 16.165 32.674 16.0694 32.7229C14.4641 33.5786 13.325 34.8125 12.7681 36.5651C12.4994 37.6141 12.5949 38.5969 13.0917 39.5595C14.1334 41.3117 15.9957 42.2341 17.9107 42.7317C21.7008 43.5749 26.7997 43.072 30.1498 41.0009C31.3063 40.1713 32.1119 39.0401 32.4306 37.6491C32.5573 36.4328 32.2895 35.381 31.5475 34.3963C29.8297 32.4078 26.6761 30.5325 24.0186 30.2846C21.3974 30.1337 18.627 31.4094 16.3506 32.5793Z" fill="#626CC6"/>
<path d="M14.5255 10.6667C16.3664 10.6667 17.8588 9.17428 17.8588 7.33333C17.8588 5.49238 16.3664 4 14.5255 4C12.6845 4 11.1921 5.49238 11.1921 7.33333C11.1921 9.17428 12.6845 10.6667 14.5255 10.6667Z" stroke="#00897B" stroke-width="2" stroke-linecap="round" stroke-linejoin="round"/>
<path d="M9.19202 16C9.19209 15.1607 9.39028 14.3332 9.77045 13.5849C10.1506 12.8365 10.7021 12.1885 11.3799 11.6935C12.0577 11.1985 12.8428 10.8704 13.6714 10.736C14.4999 10.6016 15.3485 10.6647 16.148 10.92" stroke="#00897B" stroke-width="2" stroke-linecap="round" stroke-linejoin="round"/>
<path d="M47.0794 24.7C47.7628 24.7 48.3628 24.6167 48.8794 24.45C49.4044 24.2833 49.8419 24.05 50.1919 23.75C50.5419 23.4417 50.8044 23.0792 50.9794 22.6625C51.1544 22.2375 51.2419 21.7708 51.2419 21.2625C51.2419 20.2292 50.9003 19.45 50.2169 18.925C49.5419 18.4 48.5253 18.1375 47.1669 18.1375H44.6544V24.7H47.0794ZM55.4544 34H53.0794C52.6044 34 52.2586 33.8125 52.0419 33.4375L47.6044 27.2125C47.4628 27.0042 47.3086 26.8583 47.1419 26.775C46.9753 26.6833 46.7253 26.6375 46.3919 26.6375H44.6544V34H41.9919V16.05H47.1669C48.3253 16.05 49.3211 16.1708 50.1544 16.4125C50.9961 16.6458 51.6878 16.9833 52.2294 17.425C52.7794 17.8583 53.1836 18.3833 53.4419 19C53.7086 19.6167 53.8419 20.3083 53.8419 21.075C53.8419 21.7 53.7461 22.2875 53.5544 22.8375C53.3628 23.3875 53.0794 23.8833 52.7044 24.325C52.3378 24.7583 51.8878 25.1333 51.3544 25.45C50.8211 25.7667 50.2169 26.0083 49.5419 26.175C49.8753 26.375 50.1628 26.6542 50.4044 27.0125L55.4544 34ZM68.9009 31.8375L68.8884 34H57.7634V16.05H68.8884V18.2125H60.4384V23.9H67.2384V25.9875H60.4384V31.8375H68.9009ZM84.339 30.15C84.489 30.15 84.6182 30.2083 84.7265 30.325L85.7765 31.475C85.0432 32.3417 84.1473 33.0125 83.089 33.4875C82.039 33.9625 80.7723 34.2 79.289 34.2C77.989 34.2 76.8098 33.975 75.7515 33.525C74.7015 33.075 73.8015 32.4458 73.0515 31.6375C72.3098 30.8292 71.7348 29.8625 71.3265 28.7375C70.9182 27.6125 70.714 26.375 70.714 25.025C70.714 23.675 70.9265 22.4375 71.3515 21.3125C71.7848 20.1875 72.389 19.2208 73.164 18.4125C73.939 17.6042 74.864 16.975 75.939 16.525C77.0223 16.075 78.2182 15.85 79.5265 15.85C80.8015 15.85 81.9348 16.0583 82.9265 16.475C83.9182 16.8917 84.7807 17.4458 85.514 18.1375L84.639 19.375C84.5807 19.4667 84.5057 19.5417 84.414 19.6C84.3307 19.6583 84.2182 19.6875 84.0765 19.6875C83.9182 19.6875 83.7307 19.6083 83.514 19.45C83.3057 19.2917 83.0265 19.1167 82.6765 18.925C82.3348 18.725 81.9098 18.5458 81.4015 18.3875C80.8932 18.2292 80.2598 18.15 79.5015 18.15C78.6098 18.15 77.7932 18.3083 77.0515 18.625C76.3098 18.9333 75.6682 19.3833 75.1265 19.975C74.5932 20.5583 74.1765 21.2792 73.8765 22.1375C73.5848 22.9875 73.439 23.95 73.439 25.025C73.439 26.1167 73.5932 27.0875 73.9015 27.9375C74.2098 28.7875 74.6348 29.5083 75.1765 30.1C75.7182 30.6917 76.3557 31.1417 77.089 31.45C77.8223 31.7583 78.614 31.9125 79.464 31.9125C79.9807 31.9125 80.4432 31.8833 80.8515 31.825C81.2682 31.7583 81.6473 31.6625 81.989 31.5375C82.339 31.4125 82.6682 31.2542 82.9765 31.0625C83.2848 30.8625 83.589 30.625 83.889 30.35C83.9557 30.2917 84.0265 30.2458 84.1015 30.2125C84.1765 30.1708 84.2557 30.15 84.339 30.15Z" fill="#626CC6"/>
</svg>
