<svg width="17" height="17" viewBox="0 0 17 17" fill="none" xmlns="http://www.w3.org/2000/svg">
<path d="M7.73324 10.5H9.06657C9.42019 10.5 9.75933 10.3595 10.0094 10.1095C10.2594 9.85943 10.3999 9.52029 10.3999 9.16667C10.3999 8.81305 10.2594 8.47391 10.0094 8.22386C9.75933 7.97381 9.42019 7.83334 9.06657 7.83334H7.06657C6.66657 7.83334 6.33324 7.96667 6.13324 8.23334L2.3999 11.8333" stroke="#6366F1" stroke-width="1.33333" stroke-linecap="round" stroke-linejoin="round"/>
<path d="M5.06656 14.5L6.13323 13.5667C6.33323 13.3 6.66656 13.1667 7.06656 13.1667H9.73323C10.4666 13.1667 11.1332 12.9 11.5999 12.3667L14.6666 9.43333C14.9238 9.19022 15.074 8.85486 15.084 8.50104C15.094 8.14723 14.963 7.80392 14.7199 7.54666C14.4768 7.2894 14.1414 7.13926 13.7876 7.12926C13.4338 7.11925 13.0905 7.25022 12.8332 7.49333L10.0332 10.0933" stroke="#6366F1" stroke-width="1.33333" stroke-linecap="round" stroke-linejoin="round"/>
<path d="M1.73325 11.1667L5.73325 15.1667" stroke="#6366F1" stroke-width="1.33333" stroke-linecap="round" stroke-linejoin="round"/>
<path d="M11.0666 8.43333C12.1343 8.43333 12.9999 7.56775 12.9999 6.5C12.9999 5.43225 12.1343 4.56667 11.0666 4.56667C9.99882 4.56667 9.13324 5.43225 9.13324 6.5C9.13324 7.56775 9.99882 8.43333 11.0666 8.43333Z" stroke="#6366F1" stroke-width="1.33333" stroke-linecap="round" stroke-linejoin="round"/>
<path d="M4.3999 5.83334C5.50447 5.83334 6.3999 4.93791 6.3999 3.83334C6.3999 2.72877 5.50447 1.83334 4.3999 1.83334C3.29533 1.83334 2.3999 2.72877 2.3999 3.83334C2.3999 4.93791 3.29533 5.83334 4.3999 5.83334Z" stroke="#6366F1" stroke-width="1.33333" stroke-linecap="round" stroke-linejoin="round"/>
</svg>
