<svg width="24" height="24" viewBox="0 0 24 24" fill="none" xmlns="http://www.w3.org/2000/svg">
<path d="M4.00024 19.5V4.5C4.00024 3.83696 4.26364 3.20107 4.73248 2.73223C5.20132 2.26339 5.8372 2 6.50024 2H19.0002C19.2655 2 19.5198 2.10536 19.7074 2.29289C19.8949 2.48043 20.0002 2.73478 20.0002 3V21C20.0002 21.2652 19.8949 21.5196 19.7074 21.7071C19.5198 21.8946 19.2655 22 19.0002 22H6.50024C5.8372 22 5.20132 21.7366 4.73248 21.2678C4.26364 20.7989 4.00024 20.163 4.00024 19.5ZM4.00024 19.5C4.00024 18.837 4.26364 18.2011 4.73248 17.7322C5.20132 17.2634 5.8372 17 6.50024 17H20.0002" stroke="#37474F" stroke-width="2" stroke-linecap="round" stroke-linejoin="round"/>
<path d="M7.99976 11H15.9998" stroke="#37474F" stroke-width="2" stroke-linecap="round" stroke-linejoin="round"/>
<path d="M7.99976 7H13.9998" stroke="#37474F" stroke-width="2" stroke-linecap="round" stroke-linejoin="round"/>
</svg>
