<svg width="104" height="22" viewBox="0 0 104 22" fill="none" xmlns="http://www.w3.org/2000/svg">
<line x1="21.6971" y1="10.1273" x2="41.6971" y2="10.1273" stroke="#9B9797" stroke-opacity="0.3" stroke-width="0.810185"/>
<line x1="62.6" y1="10.1273" x2="82.6" y2="10.1273" stroke="#9B9797" stroke-opacity="0.3" stroke-width="0.810185"/>
<circle cx="11.1324" cy="10.5324" r="10.5324" fill="#2ECC71" fill-opacity="0.1"/>
<g clip-path="url(#clip0_1392_12137)">
<path d="M16.5342 10.0354V10.5324C16.5335 11.6971 16.1563 12.8304 15.459 13.7633C14.7616 14.6961 13.7813 15.3786 12.6644 15.7088C11.5474 16.0391 10.3537 15.9994 9.26111 15.5958C8.16855 15.1921 7.23575 14.4461 6.60181 13.469C5.96787 12.4919 5.66676 11.3361 5.7434 10.1739C5.82003 9.01167 6.2703 7.90537 7.02706 7.01997C7.78381 6.13457 8.8065 5.51751 9.94259 5.26083C11.0787 5.00414 12.2673 5.12158 13.3312 5.59562M16.5342 6.21136L11.1329 11.618L9.51256 9.99763" stroke="#2ECC71" stroke-width="0.694444" stroke-linecap="round" stroke-linejoin="round"/>
</g>
<circle cx="93.1324" cy="10.5324" r="10.5324" fill="#2ECC71" fill-opacity="0.1"/>
<g clip-path="url(#clip1_1392_12137)">
<path d="M98.5342 10.0354V10.5324C98.5335 11.6971 98.1563 12.8304 97.459 13.7633C96.7616 14.6961 95.7813 15.3786 94.6644 15.7088C93.5474 16.0391 92.3537 15.9994 91.2611 15.5958C90.1686 15.1921 89.2357 14.4461 88.6018 13.469C87.9679 12.4919 87.6668 11.3361 87.7434 10.1739C87.82 9.01167 88.2703 7.90537 89.0271 7.01997C89.7838 6.13457 90.8065 5.51751 91.9426 5.26083C93.0787 5.00414 94.2673 5.12158 95.3312 5.59562M98.5342 6.21136L93.1329 11.618L91.5126 9.99763" stroke="#2ECC71" stroke-width="0.694444" stroke-linecap="round" stroke-linejoin="round"/>
</g>
<circle cx="52.1324" cy="10.5324" r="10.5324" fill="#2ECC71" fill-opacity="0.1"/>
<g clip-path="url(#clip2_1392_12137)">
<path d="M57.5342 10.0354V10.5324C57.5335 11.6971 57.1563 12.8304 56.459 13.7633C55.7616 14.6961 54.7813 15.3786 53.6644 15.7088C52.5474 16.0391 51.3537 15.9994 50.2611 15.5958C49.1686 15.1921 48.2357 14.4461 47.6018 13.469C46.9679 12.4919 46.6668 11.3361 46.7434 10.1739C46.82 9.01167 47.2703 7.90537 48.0271 7.01997C48.7838 6.13457 49.8065 5.51751 50.9426 5.26083C52.0787 5.00414 53.2673 5.12158 54.3312 5.59562M57.5342 6.21136L52.1329 11.618L50.5126 9.99763" stroke="#2ECC71" stroke-width="0.694444" stroke-linecap="round" stroke-linejoin="round"/>
</g>
<defs>
<clipPath id="clip0_1392_12137">
<rect width="12.963" height="12.963" fill="white" transform="translate(4.65143 4.05086)"/>
</clipPath>
<clipPath id="clip1_1392_12137">
<rect width="12.963" height="12.963" fill="white" transform="translate(86.6514 4.05086)"/>
</clipPath>
<clipPath id="clip2_1392_12137">
<rect width="12.963" height="12.963" fill="white" transform="translate(45.6514 4.05086)"/>
</clipPath>
</defs>
</svg>
