<svg width="16" height="17" viewBox="0 0 16 17" fill="none" xmlns="http://www.w3.org/2000/svg">
<path d="M6.66671 9.16667C8.50766 9.16667 10 7.67428 10 5.83333C10 3.99238 8.50766 2.5 6.66671 2.5C4.82576 2.5 3.33337 3.99238 3.33337 5.83333C3.33337 7.67428 4.82576 9.16667 6.66671 9.16667Z" stroke="#60A5FA" stroke-width="1.33333" stroke-linecap="round" stroke-linejoin="round"/>
<path d="M1.33337 14.5C1.33345 13.6606 1.53164 12.8332 1.91181 12.0848C2.29199 11.3365 2.84342 10.6885 3.52126 10.1935C4.1991 9.69843 4.9842 9.37037 5.81273 9.23597C6.64126 9.10158 7.48981 9.16463 8.28937 9.42" stroke="#60A5FA" stroke-width="1.33333" stroke-linecap="round" stroke-linejoin="round"/>
<path d="M12 14.5C13.1046 14.5 14 13.6046 14 12.5C14 11.3954 13.1046 10.5 12 10.5C10.8954 10.5 10 11.3954 10 12.5C10 13.6046 10.8954 14.5 12 14.5Z" stroke="#60A5FA" stroke-width="1.33333" stroke-linecap="round" stroke-linejoin="round"/>
<path d="M14.6667 15.1667L13.4 13.9" stroke="#60A5FA" stroke-width="1.33333" stroke-linecap="round" stroke-linejoin="round"/>
</svg>
