<svg width="13" height="12" viewBox="0 0 13 12" fill="none" xmlns="http://www.w3.org/2000/svg">
<g clip-path="url(#clip0_1346_11935)">
<path d="M6.3084 1.40699C6.32983 1.29229 6.39069 1.1887 6.48045 1.11415C6.57021 1.0396 6.68322 0.998795 6.7999 0.998795C6.91659 0.998795 7.02959 1.0396 7.11935 1.11415C7.20912 1.1887 7.26998 1.29229 7.2914 1.40699L7.8169 4.18599C7.85423 4.38357 7.95024 4.5653 8.09242 4.70748C8.2346 4.84965 8.41633 4.94567 8.6139 4.98299L11.3929 5.50849C11.5076 5.52992 11.6112 5.59078 11.6857 5.68054C11.7603 5.7703 11.8011 5.88331 11.8011 5.99999C11.8011 6.11667 11.7603 6.22968 11.6857 6.31944C11.6112 6.40921 11.5076 6.47007 11.3929 6.49149L8.6139 7.01699C8.41633 7.05431 8.2346 7.15033 8.09242 7.29251C7.95024 7.43468 7.85423 7.61642 7.8169 7.81399L7.2914 10.593C7.26998 10.7077 7.20912 10.8113 7.11935 10.8858C7.02959 10.9604 6.91659 11.0012 6.7999 11.0012C6.68322 11.0012 6.57021 10.9604 6.48045 10.8858C6.39069 10.8113 6.32983 10.7077 6.3084 10.593L5.7829 7.81399C5.74558 7.61642 5.64957 7.43468 5.50739 7.29251C5.36521 7.15033 5.18348 7.05431 4.9859 7.01699L2.2069 6.49149C2.0922 6.47007 1.98861 6.40921 1.91406 6.31944C1.83951 6.22968 1.79871 6.11667 1.79871 5.99999C1.79871 5.88331 1.83951 5.7703 1.91406 5.68054C1.98861 5.59078 2.0922 5.52992 2.2069 5.50849L4.9859 4.98299C5.18348 4.94567 5.36521 4.84965 5.50739 4.70748C5.64957 4.5653 5.74558 4.38357 5.7829 4.18599L6.3084 1.40699Z" stroke="#15803D" stroke-linecap="round" stroke-linejoin="round"/>
<path d="M10.8002 1.00001V3.00001" stroke="#15803D" stroke-linecap="round" stroke-linejoin="round"/>
<path d="M11.8 1.99999H9.80005" stroke="#15803D" stroke-linecap="round" stroke-linejoin="round"/>
<path d="M2.80017 11C3.35246 11 3.80017 10.5523 3.80017 10C3.80017 9.44772 3.35246 9 2.80017 9C2.24789 9 1.80017 9.44772 1.80017 10C1.80017 10.5523 2.24789 11 2.80017 11Z" stroke="#15803D" stroke-linecap="round" stroke-linejoin="round"/>
</g>
<defs>
<clipPath id="clip0_1346_11935">
<rect width="12" height="12" fill="white" transform="translate(0.800049)"/>
</clipPath>
</defs>
</svg>
