<svg width="15" height="14" viewBox="0 0 15 14" fill="none" xmlns="http://www.w3.org/2000/svg">
<path d="M7.60002 11.6667C7.27918 11.6667 7.00453 11.5524 6.77606 11.324C6.54759 11.0955 6.43335 10.8208 6.43335 10.5C6.43335 10.1792 6.54759 9.90452 6.77606 9.67605C7.00453 9.44758 7.27918 9.33334 7.60002 9.33334C7.92085 9.33334 8.1955 9.44758 8.42397 9.67605C8.65245 9.90452 8.76668 10.1792 8.76668 10.5C8.76668 10.8208 8.65245 11.0955 8.42397 11.324C8.1955 11.5524 7.92085 11.6667 7.60002 11.6667ZM7.60002 8.16668C7.27918 8.16668 7.00453 8.05244 6.77606 7.82397C6.54759 7.5955 6.43335 7.32084 6.43335 7.00001C6.43335 6.67918 6.54759 6.40452 6.77606 6.17605C7.00453 5.94758 7.27918 5.83334 7.60002 5.83334C7.92085 5.83334 8.1955 5.94758 8.42397 6.17605C8.65245 6.40452 8.76668 6.67918 8.76668 7.00001C8.76668 7.32084 8.65245 7.5955 8.42397 7.82397C8.1955 8.05244 7.92085 8.16668 7.60002 8.16668ZM7.60002 4.66668C7.27918 4.66668 7.00453 4.55244 6.77606 4.32397C6.54759 4.0955 6.43335 3.82084 6.43335 3.50001C6.43335 3.17918 6.54759 2.90452 6.77606 2.67605C7.00453 2.44758 7.27918 2.33334 7.60002 2.33334C7.92085 2.33334 8.1955 2.44758 8.42397 2.67605C8.65245 2.90452 8.76668 3.17918 8.76668 3.50001C8.76668 3.82084 8.65245 4.0955 8.42397 4.32397C8.1955 4.55244 7.92085 4.66668 7.60002 4.66668Z" fill="#E74C3C"/>
</svg>
