<svg width="15" height="14" viewBox="0 0 15 14" fill="none" xmlns="http://www.w3.org/2000/svg">
<path d="M7.80009 11.6667C7.47926 11.6667 7.2046 11.5524 6.97613 11.324C6.74766 11.0955 6.63342 10.8208 6.63342 10.5C6.63342 10.1792 6.74766 9.90451 6.97613 9.67604C7.2046 9.44757 7.47926 9.33333 7.80009 9.33333C8.12092 9.33333 8.39558 9.44757 8.62405 9.67604C8.85252 9.90451 8.96676 10.1792 8.96676 10.5C8.96676 10.8208 8.85252 11.0955 8.62405 11.324C8.39558 11.5524 8.12092 11.6667 7.80009 11.6667ZM7.80009 8.16666C7.47926 8.16666 7.2046 8.05243 6.97613 7.82395C6.74766 7.59548 6.63342 7.32083 6.63342 7C6.63342 6.67916 6.74766 6.40451 6.97613 6.17604C7.2046 5.94756 7.47926 5.83333 7.80009 5.83333C8.12092 5.83333 8.39558 5.94756 8.62405 6.17604C8.85252 6.40451 8.96676 6.67916 8.96676 7C8.96676 7.32083 8.85252 7.59548 8.62405 7.82395C8.39558 8.05243 8.12092 8.16666 7.80009 8.16666ZM7.80009 4.66666C7.47926 4.66666 7.2046 4.55243 6.97613 4.32395C6.74766 4.09548 6.63342 3.82083 6.63342 3.49999C6.63342 3.17916 6.74766 2.90451 6.97613 2.67604C7.2046 2.44756 7.47926 2.33333 7.80009 2.33333C8.12092 2.33333 8.39558 2.44756 8.62405 2.67604C8.85252 2.90451 8.96676 3.17916 8.96676 3.49999C8.96676 3.82083 8.85252 4.09548 8.62405 4.32395C8.39558 4.55243 8.12092 4.66666 7.80009 4.66666Z" fill="#38BDF8"/>
</svg>
